<svg width="19" height="19" viewBox="0 0 19 19" fill="none" xmlns="http://www.w3.org/2000/svg">
<path d="M17.4062 0.875H5.90625C5.71563 0.875 5.53281 0.950725 5.39802 1.08552C5.26323 1.22031 5.1875 1.40313 5.1875 1.59375V5.1875H1.59375C1.40313 5.1875 1.22031 5.26323 1.08552 5.39802C0.950725 5.53281 0.875 5.71563 0.875 5.90625V17.4062C0.875 17.5969 0.950725 17.7797 1.08552 17.9145C1.22031 18.0493 1.40313 18.125 1.59375 18.125H13.0938C13.2844 18.125 13.4672 18.0493 13.602 17.9145C13.7368 17.7797 13.8125 17.5969 13.8125 17.4062V13.8125H17.4062C17.5969 13.8125 17.7797 13.7368 17.9145 13.602C18.0493 13.4672 18.125 13.2844 18.125 13.0938V1.59375C18.125 1.40313 18.0493 1.22031 17.9145 1.08552C17.7797 0.950725 17.5969 0.875 17.4062 0.875ZM12.375 16.6875H2.3125V6.625H12.375V16.6875ZM16.6875 12.375H13.8125V5.90625C13.8125 5.71563 13.7368 5.53281 13.602 5.39802C13.4672 5.26323 13.2844 5.1875 13.0938 5.1875H6.625V2.3125H16.6875V12.375Z" fill="white"/>
</svg>
