<svg width="20" height="20" viewBox="0 0 20 20" fill="none" xmlns="http://www.w3.org/2000/svg">
<path d="M17.02 2.97501C15.631 1.58661 13.8614 0.641269 11.9352 0.258537C10.0089 -0.124195 8.01236 0.0728682 6.19808 0.824807C4.38379 1.57675 2.83322 2.84979 1.74243 4.48296C0.651646 6.11613 0.0696397 8.03607 0.0700075 10C0.0700072 12.6341 1.11604 15.1603 2.97813 17.0233C4.84023 18.8864 7.36595 19.9337 10 19.935C11.3035 19.9356 12.5945 19.6808 13.8 19.185C15.0017 18.6778 16.0948 17.9445 17.02 17.025C17.9426 16.1025 18.6745 15.0073 19.1739 13.802C19.6732 12.5966 19.9302 11.3047 19.9302 10C19.9302 8.69531 19.6732 7.4034 19.1739 6.19804C18.6745 4.99268 17.9426 3.89749 17.02 2.97501ZM16.32 16.315C14.8901 17.7511 13.0138 18.6575 11 18.885V12.325H12.88C13.1452 12.325 13.3996 12.2197 13.5871 12.0321C13.7747 11.8446 13.88 11.5902 13.88 11.325C13.88 11.0598 13.7747 10.8054 13.5871 10.6179C13.3996 10.4304 13.1452 10.325 12.88 10.325H11V7.58501C11 7.31979 11.1054 7.06544 11.2929 6.8779C11.4804 6.69037 11.7348 6.58501 12 6.58501H13.2C13.4652 6.58501 13.7196 6.47965 13.9071 6.29212C14.0947 6.10458 14.2 5.85023 14.2 5.58501C14.2 5.31979 14.0947 5.06544 13.9071 4.8779C13.7196 4.69037 13.4652 4.58501 13.2 4.58501H11.5C10.837 4.58501 10.2011 4.8484 9.73224 5.31724C9.2634 5.78608 9.00001 6.42197 9.00001 7.08501V10.325H7.13001C6.86479 10.325 6.61044 10.4304 6.4229 10.6179C6.23536 10.8054 6.13001 11.0598 6.13001 11.325C6.13001 11.5902 6.23536 11.8446 6.4229 12.0321C6.61044 12.2197 6.86479 12.325 7.13001 12.325H9.00001V18.885C7.1429 18.6731 5.39929 17.8832 4.01546 16.6267C2.63163 15.3702 1.67752 13.7107 1.28791 11.8826C0.898294 10.0545 1.09287 8.1502 1.84414 6.43867C2.59541 4.72714 3.86541 3.29489 5.47476 2.34423C7.0841 1.39357 8.95145 0.972546 10.813 1.14063C12.6746 1.30871 14.4363 2.0574 15.8494 3.28095C17.2624 4.5045 18.2553 6.14107 18.6879 7.95949C19.1204 9.7779 18.9708 11.6863 18.26 13.415C17.8073 14.4982 17.1484 15.4831 16.32 16.315Z" fill="white"/>
</svg>
